<svg width="320" height="74" viewBox="0 0 320 74" fill="none" xmlns="http://www.w3.org/2000/svg">
<path d="M55.2705 41.7248L56.1072 30.7226L46.5942 26.5392L55.2705 41.7248ZM27.3424 26.4639L17.7542 30.7226L18.5072 41.9758L27.3424 26.4639ZM28.0536 59.0941L36.8135 65.3022L45.5819 59.0941H28.0536ZM36.8135 22.2806L46.6361 26.581L36.9641 9.56315L27.3424 26.4639L36.8135 22.2806ZM54.3836 52.8609L45.5819 59.0941H65.16L55.2705 41.7248L54.3836 52.8609ZM19.2434 52.8609L18.5072 41.9842L8.76831 59.0941H28.0118L19.2434 52.8609ZM36.8135 0C36.8135 0 0.987272 21.4523 0 63.7209C10.7847 72.7904 33.6509 73.0665 36.8135 73.0163C39.9762 72.9661 62.8424 72.7737 73.6271 63.7209C72.6314 21.4523 36.8135 0 36.8135 0ZM54.5008 70.4226L36.8135 65.3022L19.1179 70.4226L8.76831 59.0941L3.94072 44.1762L17.7542 30.7226L21.469 13.4704L36.9641 9.56315L52.1497 13.4704L56.149 30.7226L69.6863 44.1762L65.1516 59.0941L54.5008 70.4226Z" fill="#FFC700"/>
<path d="M102.775 23.3585H105.204C106.505 23.3887 107.806 23.2987 109.09 23.0897C109.785 22.9306 110.441 22.6361 111.018 22.2237C111.658 21.75 112.178 21.1366 112.536 20.4319C112.967 19.5586 113.176 18.595 113.143 17.6246C113.203 16.3565 112.829 15.1051 112.081 14.0708C111.423 13.1956 110.48 12.5685 109.409 12.2939C107.962 12.0863 106.497 12.0213 105.037 12.0998H99.0404V30.2869H102.775V23.3585ZM102.775 15.1011H104.581C105.479 15.0801 106.377 15.12 107.268 15.2206C107.854 15.3077 108.391 15.5928 108.786 16.0269C109.188 16.4808 109.4 17.0679 109.378 17.6694C109.406 18.1994 109.257 18.7238 108.953 19.1626C108.668 19.5703 108.259 19.8787 107.784 20.0436C106.825 20.2961 105.831 20.3969 104.839 20.3423H102.775V15.1011ZM113.31 43.2424H100.528V45.1686C100.537 47.7523 100.4 50.3346 100.118 52.9034C99.9253 54.7812 99.4121 56.6136 98.6001 58.3237H97.082V65.3417H100.194V61.3698H111.838V65.3417H114.874V58.3237H113.31V43.2424ZM109.591 58.3237H102.562C103.574 55.7853 104.08 51.7536 104.08 46.2288H109.591V58.3237ZM174.975 30.5259C176.177 30.5794 177.377 30.3852 178.499 29.9558C179.62 29.5264 180.638 28.8712 181.487 28.0322C183.066 26.0622 183.924 23.627 183.924 21.1187C183.924 18.6105 183.066 16.1752 181.487 14.2052C180.631 13.3669 179.608 12.7125 178.482 12.2832C177.355 11.854 176.151 11.6594 174.944 11.7116C173.578 11.6859 172.221 11.9296 170.952 12.4283C170.054 12.8133 169.243 13.3719 168.568 14.0708C167.84 14.7984 167.248 15.6479 166.823 16.5794C166.215 18.058 165.926 19.6442 165.972 21.2382C165.905 22.4766 166.088 23.7159 166.51 24.8846C166.932 26.0533 167.585 27.1281 168.432 28.0472C169.287 28.885 170.311 29.5382 171.438 29.965C172.564 30.3917 173.769 30.5828 174.975 30.5259ZM171.24 16.4152C171.72 15.9233 172.297 15.532 172.935 15.2647C173.572 14.9973 174.259 14.8595 174.952 14.8595C175.645 14.8595 176.331 14.9973 176.969 15.2647C177.607 15.532 178.183 15.9233 178.664 16.4152C179.693 17.7535 180.189 19.4156 180.06 21.0889C180.193 22.7902 179.685 24.4801 178.633 25.8372C178.167 26.3388 177.599 26.7393 176.967 27.0133C176.334 27.2874 175.651 27.4289 174.959 27.4289C174.268 27.4289 173.585 27.2874 172.952 27.0133C172.32 26.7393 171.752 26.3388 171.286 25.8372C170.35 24.4466 169.851 22.816 169.851 21.1486C169.851 19.4811 170.35 17.8505 171.286 16.4599L171.24 16.4152ZM301.279 12.0998H297.544V30.2869H301.279V12.0998ZM254.962 29.7494C255.857 29.3891 256.623 28.7759 257.163 27.9874C257.817 27.0593 258.152 25.9503 258.12 24.8218C258.14 24.1059 258.017 23.393 257.756 22.7242C257.496 22.0554 257.103 21.4438 256.602 20.9246C255.906 20.3263 255.093 19.8735 254.214 19.5937C253.334 19.3139 252.406 19.2129 251.486 19.297H246.476V12.0998H242.681V30.2869H251.425C252.627 30.3136 253.824 30.1316 254.962 29.7494ZM246.415 27.1662V22.3431H250.226C251.297 22.263 252.371 22.464 253.338 22.9255C253.643 23.1244 253.889 23.399 254.052 23.7215C254.214 24.044 254.288 24.4029 254.264 24.7621C254.29 25.3114 254.094 25.8485 253.717 26.2553C253.408 26.6325 252.981 26.8999 252.503 27.0168C251.698 27.1659 250.878 27.226 250.059 27.196L246.415 27.1662ZM264.936 22.2536H272.253V30.2123H275.988V12.0998H272.253V19.2522H264.936V12.0998H261.202V30.2869H264.936V22.2536ZM312.649 11.0994C313.652 11.1443 314.633 10.8013 315.382 10.1437C316.118 9.44375 316.553 8.49222 316.596 7.48584H314.866C314.842 7.99915 314.613 8.4824 314.228 8.82971C313.789 9.14499 313.253 9.30306 312.71 9.27767C312.167 9.30068 311.632 9.14284 311.192 8.82971C310.818 8.4762 310.595 7.99547 310.57 7.48584H308.839C308.883 8.48906 309.311 9.43873 310.038 10.1437C310.759 10.7687 311.689 11.1092 312.649 11.0994ZM130.48 27.1512H120.005V22.1938H129.296V19.1328H120.005V15.0862H129.994V12.0998H116.331V30.2869H130.404L130.48 27.1512ZM190.717 22.2536H198.034V30.2123H201.769V12.0998H197.898V19.2522H190.581V12.0998H186.846V30.2869H190.581L190.717 22.2536ZM159.566 18.3414V30.2123H163.058V12.0998H159.202L151.733 24.135V12.0998H148.241V30.2869H151.976L159.566 18.3414ZM137.433 15.0862H146.237V12.0998H133.698V30.2869H137.433V15.0862ZM218.118 30.2272H222.187L214.779 12.0998H210.832L203.621 30.2869H207.583L209.101 26.1508H216.509L218.118 30.2272ZM210.255 23.03L212.76 16.2808L215.31 23.03H210.255ZM294.432 28.0173C295.055 27.0781 295.387 25.9807 295.387 24.8592C295.387 23.7376 295.055 22.6403 294.432 21.7011C293.862 20.8461 293.034 20.1882 292.064 19.8196C290.978 19.4425 289.83 19.2653 288.679 19.297H283.684V12.0998H279.95V30.2869H288.679C289.869 30.3398 291.06 30.1934 292.201 29.8539C293.116 29.4779 293.895 28.8375 294.432 28.0173ZM291.017 26.2255C290.699 26.6005 290.268 26.8671 289.787 26.987C288.987 27.1363 288.172 27.1964 287.358 27.1662H283.715V22.3431H287.51C288.6 22.2501 289.695 22.4623 290.667 22.9553C290.96 23.1603 291.194 23.4352 291.348 23.7539C291.502 24.0727 291.571 24.4248 291.548 24.7771C291.552 25.312 291.351 25.8289 290.986 26.2255H291.017ZM282.713 50.3351H275.396V43.2424H271.661V61.4445H275.396V53.4857H282.713V61.4445H286.447V43.2424H282.713V50.3351ZM258.272 53.3215H267.562V50.3351H258.272V46.2288H268.261V43.2424H254.598V61.4445H268.625V58.4581H258.287L258.272 53.3215ZM121.083 53.3215H130.374V50.3351H121.053V46.2288H131.041V43.2424H117.379V61.4445H131.391V58.4581H121.053L121.083 53.3215ZM250.529 43.2424H246.795V58.3237H239.554V43.2424H235.819V61.4445H248.966V65.4164H252.002V58.3983H250.484L250.529 43.2424ZM316.414 18.416V30.2869H319.906V12.0998H316.186L308.687 24.2096V12.0998H305.195V30.2869H308.93L316.414 18.416ZM288.831 46.2288H294.311V61.3399H298.045V46.2288H303.541V43.2424H288.846L288.831 46.2288ZM318.904 45.1985C318.246 44.3233 317.303 43.6962 316.232 43.4216C314.768 43.1766 313.283 43.0815 311.799 43.1379H305.803V61.3399H309.613V54.4712H312.057C313.353 54.5044 314.649 54.4194 315.928 54.2174C316.621 54.0517 317.275 53.7578 317.856 53.3513C318.5 52.8817 319.021 52.2674 319.374 51.5595C319.813 50.683 320.027 49.714 319.997 48.7374C320.04 47.4806 319.655 46.2456 318.904 45.2284V45.1985ZM315.685 50.2306C315.409 50.6498 314.997 50.9654 314.516 51.1265C313.556 51.3727 312.562 51.4685 311.571 51.4102H309.613V46.2288H311.42C312.317 46.1993 313.216 46.2392 314.107 46.3483C314.693 46.4354 315.229 46.7205 315.625 47.1546C315.964 47.5738 316.162 48.0865 316.192 48.6216C316.222 49.1567 316.082 49.6876 315.792 50.141L315.685 50.2306ZM160.614 42.8691C159.252 42.8434 157.9 43.0871 156.636 43.5858C155.73 43.9651 154.914 44.5243 154.238 45.2284C153.516 45.9494 152.934 46.7946 152.522 47.722C151.915 49.2006 151.626 50.7868 151.672 52.3808C151.532 54.8819 152.405 57.3357 154.101 59.2047C154.961 60.0448 155.99 60.6992 157.122 61.126C158.254 61.5528 159.464 61.7427 160.674 61.6834C161.877 61.7369 163.077 61.5427 164.198 61.1133C165.32 60.6839 166.338 60.0287 167.187 59.1897C168.77 57.222 169.632 54.7859 169.632 52.2762C169.632 49.7666 168.77 47.3305 167.187 45.3627C166.331 44.5153 165.304 43.8552 164.171 43.4255C163.038 42.9957 161.826 42.8062 160.614 42.8691ZM164.318 56.9499C163.865 57.4641 163.303 57.8729 162.67 58.1467C162.037 58.4204 161.35 58.5523 160.659 58.5327C159.964 58.5505 159.273 58.418 158.636 58.1445C157.999 57.871 157.43 57.4632 156.97 56.9499C155.886 55.6285 155.345 53.9559 155.452 52.2613C155.323 50.5764 155.825 48.9032 156.864 47.5577C157.336 47.0576 157.914 46.6649 158.556 46.4069C159.198 46.149 159.89 46.0322 160.583 46.0645C161.274 46.0303 161.965 46.1463 162.605 46.4044C163.245 46.6625 163.82 47.0563 164.287 47.5577C165.214 48.957 165.708 50.5912 165.708 52.2613C165.708 53.9314 165.214 55.5656 164.287 56.9649L164.318 56.9499ZM184.402 51.7088C185.182 51.3666 185.842 50.8056 186.3 50.0962C186.764 49.4005 187.008 48.5842 186.998 47.7519C187.01 47.008 186.816 46.2749 186.436 45.6315C186.084 45.032 185.596 44.5209 185.009 44.1383C184.433 43.7471 183.774 43.4916 183.081 43.3917C182 43.2505 180.908 43.2006 179.817 43.2424H172.409V61.4445H178.709C181.093 61.4445 182.595 61.4445 183.263 61.325C184.157 61.2409 185.017 60.9436 185.768 60.459C186.434 59.9741 186.957 59.3251 187.286 58.5775C187.673 57.8329 187.875 57.0094 187.878 56.1735C187.901 55.1824 187.58 54.2134 186.967 53.426C186.328 52.5915 185.426 51.9879 184.402 51.7088ZM176.144 46.2288H178.299C180.06 46.2288 181.123 46.2288 181.487 46.2288C182.022 46.2667 182.524 46.495 182.899 46.8709C183.226 47.2541 183.394 47.7447 183.37 48.2446C183.381 48.5051 183.338 48.7652 183.244 49.009C183.15 49.2529 183.007 49.4754 182.823 49.6632C182.409 50.0474 181.873 50.2794 181.305 50.3201C180.956 50.3201 180.06 50.3201 178.603 50.3201H176.144V46.2288ZM183.521 57.5024C183.169 57.888 182.691 58.1413 182.17 58.2192C181.32 58.3245 180.462 58.3644 179.605 58.3386H176.144V53.4708H179.18C180.289 53.418 181.401 53.5033 182.489 53.7246C182.958 53.8758 183.367 54.1684 183.658 54.5608C183.94 54.9697 184.084 55.4557 184.068 55.9495C184.082 56.5059 183.887 57.048 183.521 57.4726V57.5024ZM135.748 53.5903V56.6812C135.748 57.4875 135.611 57.9952 135.353 58.1744C134.888 58.4201 134.361 58.529 133.835 58.4879H133V61.325C134.154 61.4146 134.943 61.4594 135.383 61.4594C136.36 61.5353 137.332 61.2711 138.131 60.7128C138.732 60.1749 139.119 59.4447 139.224 58.6522C139.413 57.1067 139.49 55.5497 139.452 53.9934V46.2288H145.023V61.3399H148.697V43.2424H135.748V53.5903ZM217.724 40.4651C217.178 40.4899 216.641 40.3261 216.206 40.0022C216.018 39.8322 215.866 39.6272 215.759 39.3991C215.652 39.171 215.592 38.9242 215.583 38.6732H213.762C213.808 39.6758 214.236 40.6244 214.961 41.3311C215.716 41.9779 216.693 42.3193 217.693 42.2868C218.695 42.3254 219.674 41.9832 220.426 41.3311C221.155 40.6259 221.588 39.6775 221.64 38.6732H219.91C219.898 38.9252 219.835 39.1723 219.726 39.4004C219.617 39.6285 219.462 39.833 219.272 40.0022C218.818 40.3317 218.256 40.4858 217.693 40.4352L217.724 40.4651ZM213.837 55.3224V43.2424H210.346V61.4445H214.08L221.565 49.4989V61.4445H225.056V43.2424H221.306L213.837 55.3224ZM198.505 42.899C197.144 42.8732 195.791 43.117 194.528 43.6157C193.622 43.9949 192.805 44.5541 192.129 45.2582C191.404 45.9718 190.813 46.8059 190.383 47.722C189.776 49.2006 189.487 50.7868 189.533 52.3808C189.463 53.6205 189.643 54.8616 190.063 56.0327C190.482 57.2038 191.133 58.2817 191.977 59.2047C193.766 60.8037 196.096 61.6898 198.512 61.6898C200.929 61.6898 203.259 60.8037 205.048 59.2047C206.631 57.2369 207.493 54.8008 207.493 52.2912C207.493 49.7815 206.631 47.3455 205.048 45.3777C204.194 44.5276 203.167 43.8646 202.034 43.4323C200.901 43 199.688 42.8081 198.475 42.8691L198.505 42.899ZM202.209 56.9798C201.757 57.494 201.194 57.9028 200.561 58.1766C199.928 58.4503 199.241 58.5822 198.55 58.5626C197.855 58.5804 197.165 58.4478 196.527 58.1743C195.89 57.9009 195.321 57.4931 194.862 56.9798C193.93 55.5849 193.434 53.9525 193.434 52.2837C193.434 50.6149 193.93 48.9826 194.862 47.5876C195.334 47.0875 195.911 46.6947 196.553 46.4368C197.196 46.1789 197.888 46.062 198.581 46.0944C199.272 46.0602 199.962 46.1762 200.602 46.4343C201.243 46.6924 201.817 47.0862 202.285 47.5876C203.212 48.9869 203.705 50.621 203.705 52.2912C203.705 53.9613 203.212 55.5954 202.285 56.9947L202.209 56.9798ZM238.795 30.2422V12.0998H225.8V25.5386C225.8 26.3449 225.663 26.8426 225.39 27.0318C224.927 27.2825 224.398 27.3917 223.872 27.3454H223.083V30.1824C224.236 30.272 225.026 30.3168 225.466 30.3168C226.443 30.3928 227.415 30.1285 228.214 29.5702C228.815 29.0323 229.202 28.3021 229.307 27.5096C229.496 25.9641 229.572 24.4071 229.534 22.8508V15.0862H235.106V30.1974L238.795 30.2422Z" fill="#FFC700"/>
</svg>
