<svg width="50" height="67" viewBox="0 0 50 67" fill="none" xmlns="http://www.w3.org/2000/svg">
<path d="M24.875 0C11.1606 0 0 11.238 0 25.0547C0 44.6866 22.5368 64.9569 23.4958 65.8082C23.8911 66.1592 24.383 66.3333 24.875 66.3333C25.367 66.3333 25.8589 66.1592 26.2542 65.811C27.2132 64.9569 49.75 44.6866 49.75 25.0547C49.75 11.238 38.5894 0 24.875 0Z" fill="#FFC700"/>
<path d="M32.2984 24.8746L32.6349 20.502L28.8087 18.8394L32.2984 24.8746ZM21.0656 18.8094L17.2092 20.502L17.512 24.9744L21.0656 18.8094ZM21.3516 31.7778L24.8749 34.2451L28.4016 31.7778H21.3516ZM24.8749 17.1468L28.8256 18.856L24.9355 12.0925L21.0656 18.8094L24.8749 17.1468ZM31.9417 29.3005L28.4016 31.7778H36.2759L32.2984 24.8746L31.9417 29.3005ZM17.8081 29.3005L17.512 24.9777L13.595 31.7778H21.3348L17.8081 29.3005ZM24.8749 8.29175C24.8749 8.29175 10.4654 16.8176 10.0684 33.6167C14.406 37.2212 23.6029 37.3309 24.8749 37.311C26.1469 37.291 35.3438 37.2145 39.6815 33.6167C39.281 16.8176 24.8749 8.29175 24.8749 8.29175ZM31.9888 36.2802L24.8749 34.2451L17.7577 36.2802L13.595 31.7778L11.6533 25.8489L17.2092 20.502L18.7033 13.6454L24.9355 12.0925L31.0432 13.6454L32.6517 20.502L38.0965 25.8489L36.2726 31.7778L31.9888 36.2802Z" fill="black"/>
</svg>
