<svg width="15" height="20" viewBox="0 0 15 20" fill="none" xmlns="http://www.w3.org/2000/svg">
<path d="M7.5 0C3.365 0 0 3.38833 0 7.55417C0 13.4733 6.795 19.585 7.08417 19.8417C7.20333 19.9475 7.35167 20 7.5 20C7.64833 20 7.79667 19.9475 7.91583 19.8425C8.205 19.585 15 13.4733 15 7.55417C15 3.38833 11.635 0 7.5 0ZM7.5 11.6667C5.2025 11.6667 3.33333 9.7975 3.33333 7.5C3.33333 5.2025 5.2025 3.33333 7.5 3.33333C9.7975 3.33333 11.6667 5.2025 11.6667 7.5C11.6667 9.7975 9.7975 11.6667 7.5 11.6667Z" fill="white"/>
</svg>
